<?xml version="1.0" encoding="UTF-8" standalone="no"?>
<!-- Created with Inkscape (http://www.inkscape.org/) -->

<svg
   version="1.1"
   id="svg1"
   width="1024"
   height="1024"
   viewBox="0 0 1024 1024"
   sodipodi:docname="favicon.svg"
   inkscape:version="1.3.2 (091e20e, 2023-11-25, custom)"
   xmlns:inkscape="http://www.inkscape.org/namespaces/inkscape"
   xmlns:sodipodi="http://sodipodi.sourceforge.net/DTD/sodipodi-0.dtd"
   xmlns="http://www.w3.org/2000/svg"
   xmlns:svg="http://www.w3.org/2000/svg">
  <defs
     id="defs1">
    <inkscape:path-effect
       effect="spiro"
       id="path-effect26"
       is_visible="true"
       lpeversion="1" />
    <inkscape:path-effect
       effect="spiro"
       id="path-effect19"
       is_visible="true"
       lpeversion="1" />
    <inkscape:path-effect
       effect="spiro"
       id="path-effect16"
       is_visible="true"
       lpeversion="1" />
    <inkscape:path-effect
       effect="spiro"
       id="path-effect15"
       is_visible="true"
       lpeversion="1" />
    <inkscape:path-effect
       effect="spiro"
       id="path-effect11"
       is_visible="true"
       lpeversion="1" />
    <inkscape:path-effect
       effect="spiro"
       id="path-effect10"
       is_visible="true"
       lpeversion="1" />
    <inkscape:path-effect
       effect="spiro"
       id="path-effect9"
       is_visible="true"
       lpeversion="1" />
    <inkscape:path-effect
       effect="spiro"
       id="path-effect7"
       is_visible="true"
       lpeversion="1" />
    <inkscape:path-effect
       effect="spiro"
       id="path-effect6"
       is_visible="true"
       lpeversion="1" />
    <inkscape:path-effect
       effect="spiro"
       id="path-effect2"
       is_visible="true"
       lpeversion="1" />
    <inkscape:path-effect
       effect="spiro"
       id="path-effect1"
       is_visible="true"
       lpeversion="1" />
    <inkscape:path-effect
       effect="spiro"
       id="path-effect5"
       is_visible="true"
       lpeversion="1" />
    <inkscape:path-effect
       effect="spiro"
       id="path-effect4"
       is_visible="true"
       lpeversion="1" />
    <inkscape:path-effect
       effect="spiro"
       id="path-effect3"
       is_visible="true"
       lpeversion="1" />
    <inkscape:path-effect
       effect="spiro"
       id="path-effect3-5"
       is_visible="true"
       lpeversion="1" />
    <inkscape:path-effect
       effect="spiro"
       id="path-effect4-7"
       is_visible="true"
       lpeversion="1" />
    <inkscape:path-effect
       effect="spiro"
       id="path-effect5-8"
       is_visible="true"
       lpeversion="1" />
    <inkscape:path-effect
       effect="spiro"
       id="path-effect6-7"
       is_visible="true"
       lpeversion="1" />
    <inkscape:path-effect
       effect="spiro"
       id="path-effect7-6"
       is_visible="true"
       lpeversion="1" />
    <inkscape:path-effect
       effect="spiro"
       id="path-effect3-5-7"
       is_visible="true"
       lpeversion="1" />
  </defs>
  <sodipodi:namedview
     id="namedview1"
     pagecolor="#ffffff"
     bordercolor="#666666"
     borderopacity="1.0"
     inkscape:showpageshadow="2"
     inkscape:pageopacity="0.0"
     inkscape:pagecheckerboard="0"
     inkscape:deskcolor="#d1d1d1"
     showgrid="false"
     inkscape:zoom="0.62804065"
     inkscape:cx="385.32538"
     inkscape:cy="667.95039"
     inkscape:window-width="2560"
     inkscape:window-height="1369"
     inkscape:window-x="1912"
     inkscape:window-y="-8"
     inkscape:window-maximized="1"
     inkscape:current-layer="g1" />
  <g
     inkscape:groupmode="layer"
     inkscape:label="Image"
     id="g1">
    <g
       id="g2"
       transform="matrix(1.214287,0,0,1.214287,-110.32209,-121.68829)">
      <ellipse
         style="opacity:1;fill:#fffaf1;fill-opacity:1;stroke:none;stroke-width:89.6642;stroke-linecap:round;stroke-linejoin:round"
         id="path13"
         cx="512.5"
         cy="674.21991"
         rx="402.63449"
         ry="183.9053" />
      <path
         id="path7"
         style="fill:#eda155;fill-opacity:1;stroke:#eca155;stroke-width:1px;stroke-linecap:butt;stroke-linejoin:miter;stroke-opacity:1"
         d="m 803.71193,611.80664 c 0.92629,0.11938 1.82245,0.46466 2.5918,0.99414 0.76935,0.52949 1.40942,1.24199 1.87305,2.05274 0.46363,0.81074 0.74988,1.7153 0.90234,2.63671 0.15246,0.92142 0.17125,1.85911 0.1836,2.79297 l 0.76171,57.61914 c 0.0597,4.51263 0.0566,9.05894 -0.81835,13.48633 -0.87499,4.42739 -2.62386,8.69723 -5.25586,12.36328 -2.63201,3.66606 -6.10209,6.68722 -9.93946,9.0625 -3.83737,2.37529 -8.02376,4.1214 -12.19922,5.83399 l -230.29687,94.45703 c -11.87599,4.87099 -24.39272,8.80737 -37.22656,8.56641 l -0.50782,-95.70313 z"
         transform="matrix(-1,0,0,1,1026.0342,0)" />
      <path
         id="path15"
         style="fill:#d5823e;fill-opacity:1;stroke:#d5823e;stroke-width:1px;stroke-linecap:butt;stroke-linejoin:miter;stroke-opacity:1"
         inkscape:path-effect="#path-effect16"
         inkscape:original-d="M 512.25474,725.96814 C 608.7292,687.91433 705.20365,649.86051 801.67811,611.8067 m -289.42337,114.16144 10e-6,95.70303 c 0,-2.84448 31.56446,-6.24271 37.22628,-8.56493 l 230.29705,-94.45741 c 23.55114,-9.65961 28.34116,-31.01336 28.21248,-40.74685 L 807.2288,620.2823 c -0.28068,-21.23045 -3.70046,-3.29519 -5.55069,-8.4756"
         d="M 512.25474,725.96814 801.67811,611.8067 m -289.42337,114.16144 10e-6,95.70303 c 12.83386,0.24097 25.35028,-3.69393 37.22628,-8.56493 l 230.29705,-94.45741 c 4.17546,-1.71259 8.36193,-3.45844 12.1993,-5.83373 3.83738,-2.37529 7.3064,-5.3967 9.9384,-9.06276 2.632,-3.66605 4.38149,-7.93563 5.25648,-12.36302 0.87499,-4.4274 0.87796,-8.97471 0.8183,-13.48734 L 807.2288,620.2823 c -0.0123,-0.93386 -0.0313,-1.87149 -0.18375,-2.79291 -0.15246,-0.92141 -0.43938,-1.82582 -0.90301,-2.63656 -0.46362,-0.81074 -1.10288,-1.52323 -1.87223,-2.05271 -0.76935,-0.52948 -1.66542,-0.87404 -2.5917,-0.99342" />
      <path
         d="m 245.36451,532.59268 c -5.14473,1.80316 -10.1507,4.001 -14.96094,6.5664 -1.65259,0.88137 -3.28716,1.81211 -4.77539,2.94922 -1.48823,1.13711 -2.82554,2.48713 -3.85351,4.05274 -1.02798,1.5656 -1.73165,3.33588 -2.11133,5.16992 -0.37969,1.83404 -0.43203,3.71903 -0.45703,5.59179 l -0.4961,37.26757 c -0.0474,3.5493 -0.006,7.14176 0.89063,10.57618 0.89692,3.43442 2.62471,6.64741 5,9.28516 2.37528,2.63775 5.33932,4.69257 8.48047,6.3457 3.14115,1.65314 6.45953,2.94212 9.76173,4.24414 l 240.52929,94.83988 c 9.24132,3.6437 18.93618,6.5933 28.86914,6.46871 9.93296,0.12459 19.62586,-2.82501 28.86719,-6.46871 L 781.63991,624.6415 c 3.30219,-1.30202 6.61861,-2.591 9.75977,-4.24414 3.14115,-1.65314 6.10518,-3.70795 8.48046,-6.3457 2.37529,-2.63775 4.10309,-5.85074 5,-9.28516 0.89692,-3.43441 0.93997,-7.02688 0.89258,-10.57618 l -0.49804,-37.26757 c -0.025,-1.87276 -0.0774,-3.75775 -0.45704,-5.59179 -0.37968,-1.83404 -1.08335,-3.60432 -2.11132,-5.16992 -1.02798,-1.56561 -2.36529,-2.91563 -3.85352,-4.05274 -1.48823,-1.13711 -3.12085,-2.06785 -4.77344,-2.94922 -4.81023,-2.5654 -9.81815,-4.76324 -14.96289,-6.5664 z"
         style="fill:#feda7d;fill-opacity:1;stroke:#ffdb7d;stroke-width:1px;stroke-opacity:1"
         id="path20" />
      <ellipse
         style="opacity:1;fill:#ff7a46;fill-opacity:1;stroke-width:28.2724;stroke-linecap:round;stroke-linejoin:round"
         id="path5"
         cx="675.66553"
         cy="-238.89589"
         rx="167.63075"
         ry="129.35039"
         transform="matrix(0.52726134,0.84970317,-0.96560615,0.26000917,0,0)" />
      <path
         id="path5-7"
         style="fill:#fef2de;fill-opacity:1;stroke:#fff2de;stroke-width:1px;stroke-linecap:butt;stroke-linejoin:miter;stroke-opacity:1"
         d="m 244.1664,473.66769 v 69.12305 c 0,1.00887 0.0249,2.02919 0.28516,3.0039 0.2603,0.97471 0.74984,1.88622 1.42187,2.63868 0.67204,0.75245 1.51015,1.34372 2.40039,1.81836 0.89025,0.47463 1.8319,0.84442 2.76954,1.21679 l 225.9707,89.74219 c 9.65722,3.83531 19.12839,8.57085 29.39062,10.20117 1.69915,0.26994 3.41346,0.43667 5.13282,0.49805 l 0.0176,-178.24219 z" />
      <path
         id="path25"
         style="fill:#f1dabd;fill-opacity:1;stroke:#f1dabd;stroke-width:1px;stroke-linecap:butt;stroke-linejoin:miter;stroke-opacity:1"
         d="m 780.40851,473.37276 -267.89063,0.29492 0.0195,178.24219 c 1.71936,-0.0614 3.43367,-0.22616 5.13281,-0.49609 10.26224,-1.63032 19.73341,-6.36782 29.39063,-10.20313 l 225.9707,-89.74218 c 0.93763,-0.37238 1.87928,-0.74217 2.76953,-1.2168 0.89025,-0.47463 1.72836,-1.06395 2.40039,-1.81641 0.67204,-0.75245 1.16158,-1.66591 1.42188,-2.64062 0.2603,-0.97471 0.28516,-1.99504 0.28516,-3.00391 v -69.08398 z" />
      <path
         d="m 512,532.11127 c -2.6336,-0.028 -5.20183,-0.77746 -7.67178,-1.69178 L 361.22442,477.4456 215.03321,472.78274 c -5.52221,-0.17613 -11.12669,-0.3814 -16.38757,-2.0693 -2.63043,-0.84395 -5.15654,-2.05758 -7.3591,-3.72497 -2.20256,-1.66739 -4.07595,-3.7979 -5.30039,-6.27423 -1.92083,-3.88472 -2.1312,-8.61309 -0.41,-12.59029 0.67044,-1.54919 1.62171,-2.97185 2.7637,-4.21495 1.142,-1.2431 2.47533,-2.29264 3.81836,-3.31525 l 66.28942,-50.47378 M 512,532.11127 c 2.6336,-0.028 5.20183,-0.77746 7.67178,-1.69178 l 143.1038,-52.97389 146.19121,-4.66286 c 5.52221,-0.17613 11.12669,-0.3814 16.38757,-2.0693 2.63043,-0.84395 5.15654,-2.05758 7.3591,-3.72497 2.20256,-1.66739 4.07595,-3.7979 5.30039,-6.27423 1.92083,-3.88472 2.1312,-8.61309 0.41,-12.59029 -0.67044,-1.54919 -1.62171,-2.97185 -2.7637,-4.21495 -1.142,-1.2431 -2.47533,-2.29264 -3.81836,-3.31525 L 765.55237,390.11997 H 258.44763"
         id="path3-31"
         style="fill:#93b65f;fill-opacity:1;stroke:#93b65e;stroke-width:1px;stroke-linecap:butt;stroke-linejoin:miter;stroke-opacity:1"
         transform="matrix(-1,0,0,1,1024,0)"
         inkscape:path-effect="#path-effect4-7"
         inkscape:original-d="m 512,532.11127 c -2.42457,-0.19904 -5.39035,-0.84724 -7.67178,-1.69178 L 361.22442,477.4456 215.03321,472.78274 c -50.42265,-1.60826 -20.42235,-7.62345 -29.04706,-12.0685 -4.31235,-2.22252 -2.03493,-9.41136 -0.41,-12.59029 1.62492,-3.17892 4.77425,-6.15371 6.58206,-7.5302 l 66.28942,-50.47378 M 512,532.11127 c -422.587283,-141.9913 5.39035,-0.84724 7.67178,-1.69178 l 143.1038,-52.97389 146.19121,-4.66286 c 50.42265,-1.60826 20.42235,-7.62345 29.04706,-12.0685 4.31235,-2.22252 2.03493,-9.41136 0.41,-12.59029 -1.62492,-3.17892 -4.77425,-6.15371 -6.58206,-7.5302 L 765.55237,390.11997 H 258.44763"
         sodipodi:nodetypes="cccssssccccsssccc" />
      <path
         id="path3-3-7"
         style="fill:#eda255;fill-opacity:1;stroke:#eda255;stroke-width:1px;stroke-linecap:butt;stroke-linejoin:miter;stroke-opacity:1"
         transform="matrix(-1,0,0,1,1024.2203,7.368756)"
         inkscape:path-effect="#path-effect3-5-7"
         inkscape:original-d="m 511.86317,178.73584 c 19.51417,293.77787 11.07489,-0.69941 29.90113,5.96558 l 237.2458,83.99138 c 13.04577,4.61855 29.45669,7.23149 29.45669,29.25766 v 66.07853 c 0,7.788 70.42343,-13.85207 -16.3206,16.71866 l -260.63202,91.85314 c -86.87734,30.61771 -10.8918,3.18404 -19.79388,4.34506 m 0.14284,-298.21001 c -19.51417,293.77787 -11.07489,-0.69941 -29.90113,5.96558 L 244.7162,268.6928 c -13.04577,4.61855 -29.45669,7.23149 -29.45669,29.25766 v 66.07853 c 0,7.788 -70.42343,-13.85207 16.3206,16.71866 l 260.63202,91.85314 c 86.87734,30.61771 10.60608,3.18404 19.50816,4.34506"
         d="m 511.86317,178.73584 c 10.22527,-0.18682 20.26048,2.55253 29.90113,5.96558 l 237.2458,83.99138 c 3.60418,1.27598 7.23612,2.47471 10.81751,3.8133 3.5814,1.3386 7.12691,2.89362 10.18286,5.1913 3.05596,2.29768 5.54068,5.39172 6.91297,8.96034 1.3723,3.56861 1.54335,7.46934 1.54335,11.29272 v 66.07853 c 0,2.14986 -0.0889,4.33992 -0.82824,6.35866 -0.73931,2.01874 -2.08593,3.79339 -3.76712,5.13335 -1.68118,1.33996 -3.6515,2.2689 -5.65372,3.05186 -2.00221,0.78297 -4.0439,1.46021 -6.07152,2.17479 l -260.63202,91.85314 c -6.40014,2.25557 -13.01136,4.12897 -19.79388,4.34506 m 0.14284,-298.21001 c -10.22527,-0.18682 -20.26048,2.55253 -29.90113,5.96558 L 244.7162,268.6928 c -3.60418,1.27598 -7.23612,2.47471 -10.81751,3.8133 -3.5814,1.3386 -7.12691,2.89362 -10.18286,5.1913 -3.05596,2.29768 -5.54068,5.39172 -6.91297,8.96034 -1.3723,3.56861 -1.54335,7.46934 -1.54335,11.29272 v 66.07853 c 0,2.14986 0.0889,4.33992 0.82824,6.35866 0.73931,2.01874 2.08593,3.79339 3.76712,5.13335 1.68118,1.33996 3.6515,2.2689 5.65372,3.05186 2.00221,0.78297 4.0439,1.46021 6.07152,2.17479 l 260.63202,91.85314 c 6.3106,2.22401 12.82235,4.08069 19.50816,4.34506"
         sodipodi:nodetypes="cssssssccssssssc" />
      <path
         id="path3-3"
         style="fill:#d7843f;fill-opacity:1;stroke:#d6833f;stroke-width:1px;stroke-linecap:butt;stroke-linejoin:miter;stroke-opacity:1"
         d="m 808.95979,305.31935 -12.7773,7.71484 -241.1543,81.76562 c -6.8749,2.33096 -13.8161,4.56253 -20.9785,5.74414 -7.1624,1.18162 -14.4996,1.35195 -21.6933,0.37891 l 0.1425,83.39257 v 0 c 6.6858,-0.26437 13.1973,-2.12169 19.5079,-4.3457 l 260.6308,-91.85351 c 2.0276,-0.71458 4.0701,-1.39086 6.0723,-2.17383 2.0022,-0.78296 3.9731,-1.71278 5.6543,-3.05274 1.6812,-1.33996 3.0263,-3.11407 3.7656,-5.13281 0.7393,-2.01874 0.8281,-4.20952 0.8281,-6.35937 z" />
    </g>
  </g>
</svg>
